<svg viewBox="0,0,952,588" xmlns="http://www.w3.org/2000/svg"><g transform="translate(-191,-28) scale(1)"><g><line class="link dim" x1="238.38504784406516" y1="163.7540522497649" x2="21.216563078220158" y2="118.22637502113801"></line><line class="link dim" x1="21.216563078220158" y1="118.22637502113801" x2="5.999007556144229" y2="235.85172176079587"></line><line class="link dim" x1="21.216563078220158" y1="118.22637502113801" x2="77.67107176213908" y2="13.518635110117872"></line><line class="link dim" x1="21.216563078220158" y1="118.22637502113801" x2="-75.82921276904551" y2="233.09304212054462"></line><line class="link dim" x1="-75.82921276904551" y1="233.09304212054462" x2="-124.59661822216553" y2="373.6725622513183"></line><line class="link dim" x1="-75.82921276904551" y1="233.09304212054462" x2="-56.726689519481354" y2="372.2412285752948"></line><line class="link dim" x1="238.38504784406516" y1="163.7540522497649" x2="403.57624168477565" y2="57.21990503070085"></line><line class="link dim" x1="403.57624168477565" y1="57.21990503070085" x2="235.07158757318103" y2="8.129657026008287"></line><line class="link dim" x1="235.07158757318103" y1="8.129657026008287" x2="77.67107176213908" y2="13.518635110117872"></line><line class="link dim" x1="235.07158757318103" y1="8.129657026008287" x2="123.54508270259413" y2="63.55812974913126"></line><line class="link dim" x1="403.57624168477565" y1="57.21990503070085" x2="413.7355800809556" y2="-121.5276075410508"></line><line class="link dim" x1="413.7355800809556" y1="-121.5276075410508" x2="393.12770174460513" y2="-203.2038838072381"></line><line class="link dim" x1="413.7355800809556" y1="-121.5276075410508" x2="269.5971242596477" y2="-214.59775487541356"></line><line class="link dim" x1="413.7355800809556" y1="-121.5276075410508" x2="391.8813770893577" y2="-271.29127062149826"></line><line class="link dim" x1="413.7355800809556" y1="-121.5276075410508" x2="320.80287251265844" y2="-169.62563302637415"></line><line class="link dim" x1="413.7355800809556" y1="-121.5276075410508" x2="256.3761293741943" y2="-148.23865646685204"></line><line class="link dim" x1="413.7355800809556" y1="-121.5276075410508" x2="451.15877104287415" y2="-238.4805700891314"></line><line class="link dim" x1="413.7355800809556" y1="-121.5276075410508" x2="462.60769010405176" y2="15.352801895236057"></line><line class="link dim" x1="413.7355800809556" y1="-121.5276075410508" x2="548.2212207076266" y2="-53.49786205842643"></line><line class="link dim" x1="413.7355800809556" y1="-121.5276075410508" x2="278.1272173923034" y2="-84.0294957421059"></line><line class="link dim" x1="413.7355800809556" y1="-121.5276075410508" x2="333.8218326597279" y2="-236.21004616592572"></line><line class="link dim" x1="403.57624168477565" y1="57.21990503070085" x2="512.5631226305657" y2="261.4048999847222"></line><line class="link dim" x1="512.5631226305657" y1="261.4048999847222" x2="363.2226071601174" y2="312.4676094169207"></line><line class="link dim" x1="512.5631226305657" y1="261.4048999847222" x2="688.1575342277692" y2="335.4318092179037"></line><line class="link dim" x1="512.5631226305657" y1="261.4048999847222" x2="547.9080024633931" y2="414.85181650804765"></line><line class="link dim" x1="512.5631226305657" y1="261.4048999847222" x2="432.50849864687194" y2="432.9724546769445"></line><line class="link dim" x1="512.5631226305657" y1="261.4048999847222" x2="378.27950726232416" y2="246.37220620661805"></line><line class="link dim" x1="512.5631226305657" y1="261.4048999847222" x2="651.0850228776085" y2="180.21511720408088"></line><line class="link dim" x1="512.5631226305657" y1="261.4048999847222" x2="495.59224956786517" y2="457.463740237413"></line><line class="link dim" x1="512.5631226305657" y1="261.4048999847222" x2="440.64229493979366" y2="272.91839030133326"></line><line class="link dim" x1="512.5631226305657" y1="261.4048999847222" x2="485.4717056536814" y2="390.5368033557117"></line><line class="link dim" x1="512.5631226305657" y1="261.4048999847222" x2="608.5815989993023" y2="232.2682727635327"></line><line class="link dim" x1="512.5631226305657" y1="261.4048999847222" x2="633.1353731260463" y2="374.59257446462783"></line><line class="link dim" x1="512.5631226305657" y1="261.4048999847222" x2="558.8285706072937" y2="481.4491926108251"></line><line class="link dim" x1="512.5631226305657" y1="261.4048999847222" x2="611.1433781799101" y2="437.57653121019246"></line><line class="link dim" x1="512.5631226305657" y1="261.4048999847222" x2="432.66422982643337" y2="205.5932396382666"></line><line class="link dim" x1="512.5631226305657" y1="261.4048999847222" x2="568.1976298464682" y2="351.30716951714385"></line><line class="link dim" x1="403.57624168477565" y1="57.21990503070085" x2="485.03347035717184" y2="-90.62418488666373"></line><line class="link dim" x1="485.03347035717184" y1="-90.62418488666373" x2="342.6067663828868" y2="-105.32499297690504"></line><line class="link dim" x1="485.03347035717184" y1="-90.62418488666373" x2="574.3253489505646" y2="-181.5866204762389"></line><line class="link dim" x1="485.03347035717184" y1="-90.62418488666373" x2="512.8830384811156" y2="-210.45215164324628"></line><line class="link dim" x1="485.03347035717184" y1="-90.62418488666373" x2="616.869282807184" y2="-56.41050131354338"></line><line class="link dim" x1="403.57624168477565" y1="57.21990503070085" x2="315.62306508538404" y2="-21.7008345134648"></line><line class="link dim" x1="315.62306508538404" y1="-21.7008345134648" x2="342.6067663828868" y2="-105.32499297690504"></line><line class="link dim" x1="403.57624168477565" y1="57.21990503070085" x2="602.7772489456486" y2="14.59847687266207"></line><line class="link dim" x1="602.7772489456486" y1="14.59847687266207" x2="706.1659149857139" y2="142.29261315854657"></line><line class="link dim" x1="403.57624168477565" y1="57.21990503070085" x2="483.53737997397474" y2="152.93066076245879"></line><line class="link dim" x1="483.53737997397474" y1="152.93066076245879" x2="378.27950726232416" y2="246.37220620661805"></line><line class="link dim" x1="483.53737997397474" y1="152.93066076245879" x2="608.5815989993023" y2="232.2682727635327"></line><line class="link dim" x1="403.57624168477565" y1="57.21990503070085" x2="288.90328849758043" y2="98.30983922509176"></line><line class="link dim" x1="288.90328849758043" y1="98.30983922509176" x2="273.3256619174672" y2="273.7395372231002"></line><line class="link dim" x1="403.57624168477565" y1="57.21990503070085" x2="323.8491562131486" y2="198.32127220246022"></line><line class="link dim" x1="323.8491562131486" y1="198.32127220246022" x2="365.80015032010306" y2="438.4766544940767"></line><line class="link" x1="238.38504784406516" y1="163.7540522497649" x2="623.2619599432518" y2="302.69702656338103"></line><line class="link" x1="623.2619599432518" y1="302.69702656338103" x2="421.42598662013773" y2="356.4468235939156"></line><line class="link" x1="421.42598662013773" y1="356.4468235939156" x2="275.1221836581101" y2="355.5171042381904"></line><line class="link" x1="421.42598662013773" y1="356.4468235939156" x2="301.272718328165" y2="418.2604733724964"></line><line class="link" x1="421.42598662013773" y1="356.4468235939156" x2="233.80503788134385" y2="409.482416305478"></line><line class="link" x1="421.42598662013773" y1="356.4468235939156" x2="324.457444897235" y2="492.31796221189404"></line><line class="link" x1="421.42598662013773" y1="356.4468235939156" x2="259.63974549185446" y2="472.14268181899325"></line><line class="link" x1="421.42598662013773" y1="356.4468235939156" x2="378.27950726232416" y2="246.37220620661805"></line><line class="link" x1="421.42598662013773" y1="356.4468235939156" x2="273.3256619174672" y2="273.7395372231002"></line><line class="link" x1="623.2619599432518" y1="302.69702656338103" x2="782.6632665802499" y2="269.13551674421905"></line><line class="link" x1="782.6632665802499" y1="269.13551674421905" x2="945.5806972373954" y2="287.3327257408108"></line><line class="link" x1="782.6632665802499" y1="269.13551674421905" x2="608.5815989993023" y2="232.2682727635327"></line><line class="link" x1="782.6632665802499" y1="269.13551674421905" x2="862.1250191336123" y2="181.37594518667657"></line><line class="link" x1="782.6632665802499" y1="269.13551674421905" x2="706.1659149857139" y2="142.29261315854657"></line><line class="link" x1="782.6632665802499" y1="269.13551674421905" x2="877.5508530341472" y2="289.64502937722006"></line><line class="link" x1="782.6632665802499" y1="269.13551674421905" x2="913.4623023524126" y2="347.23052161777264"></line><line class="link" x1="782.6632665802499" y1="269.13551674421905" x2="908.9412400720051" y2="230.1628891077186"></line><line class="link" x1="782.6632665802499" y1="269.13551674421905" x2="845.7200181192012" y2="348.7305641564287"></line><line class="link" x1="782.6632665802499" y1="269.13551674421905" x2="770.3605541950928" y2="121.66011300301645"></line><line class="link" x1="623.2619599432518" y1="302.69702656338103" x2="756.5783852317023" y2="408.66091080576376"></line><line class="link" x1="756.5783852317023" y1="408.66091080576376" x2="869.0137016087127" y2="542.7968451939757"></line><line class="link" x1="756.5783852317023" y1="408.66091080576376" x2="633.1353731260463" y2="374.59257446462783"></line><line class="link" x1="756.5783852317023" y1="408.66091080576376" x2="846.3347811228799" y2="479.2582163761936"></line><line class="link" x1="756.5783852317023" y1="408.66091080576376" x2="798.8670979928122" y2="526.8999159523781"></line><line class="link" x1="756.5783852317023" y1="408.66091080576376" x2="895.4951785079955" y2="425.40438744113"></line><line class="link" x1="756.5783852317023" y1="408.66091080576376" x2="686.6314496255413" y2="267.5532255217628"></line><line class="link" x1="756.5783852317023" y1="408.66091080576376" x2="845.7200181192012" y2="348.7305641564287"></line><line class="link" x1="756.5783852317023" y1="408.66091080576376" x2="688.1575342277692" y2="335.4318092179037"></line><line class="link" x1="756.5783852317023" y1="408.66091080576376" x2="912.906058292203" y2="491.0105916092506"></line><line class="link" x1="756.5783852317023" y1="408.66091080576376" x2="622.3290925707846" y2="503.7076981068255"></line><line class="link" x1="756.5783852317023" y1="408.66091080576376" x2="828.2034886910055" y2="413.76736636482474"></line><line class="link" x1="756.5783852317023" y1="408.66091080576376" x2="822.2622624236756" y2="590.9991027714173"></line><line class="link" x1="756.5783852317023" y1="408.66091080576376" x2="568.1976298464682" y2="351.30716951714385"></line><line class="link" x1="623.2619599432518" y1="302.69702656338103" x2="790.7060992294624" y2="191.8748091222951"></line><line class="link" x1="790.7060992294624" y1="191.8748091222951" x2="964.2115387911103" y2="190.6800121475265"></line><line class="link" x1="790.7060992294624" y1="191.8748091222951" x2="856.5747308917399" y2="111.16806964440092"></line><line class="link" x1="790.7060992294624" y1="191.8748091222951" x2="853.9400076112453" y2="43.19566201306387"></line><line class="link" x1="790.7060992294624" y1="191.8748091222951" x2="787.438479328187" y2="56.285122234251446"></line><line class="link" x1="790.7060992294624" y1="191.8748091222951" x2="651.0850228776085" y2="180.21511720408088"></line><line class="link" x1="790.7060992294624" y1="191.8748091222951" x2="917.1250904961329" y2="142.12841228940667"></line><line class="link" x1="790.7060992294624" y1="191.8748091222951" x2="913.9552741850262" y2="74.3174328894293"></line><line class="link" x1="623.2619599432518" y1="302.69702656338103" x2="517.419805189827" y2="546.0660676852033"></line><line class="link" x1="517.419805189827" y1="546.0660676852033" x2="379.0739800061054" y2="589.5689664810953"></line><line class="link" x1="517.419805189827" y1="546.0660676852033" x2="485.4717056536814" y2="390.5368033557117"></line><line class="link" x1="517.419805189827" y1="546.0660676852033" x2="432.50849864687194" y2="432.9724546769445"></line><line class="link" x1="517.419805189827" y1="546.0660676852033" x2="470.39670165381347" y2="663.7500064129871"></line><line class="link" x1="517.419805189827" y1="546.0660676852033" x2="622.3290925707846" y2="503.7076981068255"></line><line class="link" x1="517.419805189827" y1="546.0660676852033" x2="403.49409727520214" y2="652.807620318468"></line><line class="link" x1="517.419805189827" y1="546.0660676852033" x2="536.1869656593544" y2="679.7080973072378"></line><line class="link" x1="517.419805189827" y1="546.0660676852033" x2="365.80015032010306" y2="438.4766544940767"></line><line class="link" x1="517.419805189827" y1="546.0660676852033" x2="477.78067491786567" y2="737.3132416222662"></line><line class="link" x1="477.78067491786567" y1="737.3132416222662" x2="447.8250727780059" y2="836.6668244044354"></line><line class="link" x1="477.78067491786567" y1="737.3132416222662" x2="502.133480220578" y2="877.4262502385476"></line><line class="link" x1="477.78067491786567" y1="737.3132416222662" x2="440.0701512649773" y2="904.2791134089333"></line><line class="link" x1="477.78067491786567" y1="737.3132416222662" x2="385.51369653496596" y2="864.1974743663841"></line><line class="link" x1="477.78067491786567" y1="737.3132416222662" x2="393.4287070976335" y2="796.6603923594729"></line><line class="link" x1="477.78067491786567" y1="737.3132416222662" x2="330.99755656445734" y2="823.4483485953839"></line><line class="link" x1="477.78067491786567" y1="737.3132416222662" x2="555.2397904295561" y2="835.3619458367448"></line><line class="link" x1="477.78067491786567" y1="737.3132416222662" x2="289.3225988535953" y2="709.2952160290015"></line><line class="link" x1="477.78067491786567" y1="737.3132416222662" x2="338.89398113296926" y2="755.9105986477817"></line><line class="link" x1="477.78067491786567" y1="737.3132416222662" x2="273.9493648419684" y2="775.6734937800749"></line><line class="link" x1="623.2619599432518" y1="302.69702656338103" x2="561.0703577123627" y2="178.0459624285009"></line><line class="link" x1="561.0703577123627" y1="178.0459624285009" x2="487.3182391816249" y2="80.43526926108763"></line><line class="link" x1="561.0703577123627" y1="178.0459624285009" x2="462.60769010405176" y2="15.352801895236057"></line><line class="link" x1="561.0703577123627" y1="178.0459624285009" x2="432.66422982643337" y2="205.5932396382666"></line><line class="link" x1="561.0703577123627" y1="178.0459624285009" x2="440.64229493979366" y2="272.91839030133326"></line><line class="link" x1="561.0703577123627" y1="178.0459624285009" x2="411.48593692350397" y2="140.98618825486298"></line><line class="link" x1="561.0703577123627" y1="178.0459624285009" x2="686.6314496255413" y2="267.5532255217628"></line><line class="link" x1="623.2619599432518" y1="302.69702656338103" x2="656.9096717305333" y2="89.10899917370315"></line><line class="link" x1="656.9096717305333" y1="89.10899917370315" x2="718.7379284297067" y2="-30.66713370665188"></line><line class="link" x1="656.9096717305333" y1="89.10899917370315" x2="548.2212207076266" y2="-53.49786205842643"></line><line class="link" x1="656.9096717305333" y1="89.10899917370315" x2="616.869282807184" y2="-56.41050131354338"></line><line class="link" x1="656.9096717305333" y1="89.10899917370315" x2="529.7054275444299" y2="11.955789294492707"></line><line class="link" x1="656.9096717305333" y1="89.10899917370315" x2="558.6023471883893" y2="73.38334592141318"></line><line class="link" x1="623.2619599432518" y1="302.69702656338103" x2="739.9823563297217" y2="484.6268892198538"></line><line class="link" x1="739.9823563297217" y1="484.6268892198538" x2="616.983713710908" y2="576.6945309050105"></line><line class="link" x1="616.983713710908" y1="576.6945309050105" x2="495.59224956786517" y2="457.463740237413"></line><line class="link" x1="739.9823563297217" y1="484.6268892198538" x2="685.4073292533263" y2="540.0232994523343"></line><line class="link" x1="685.4073292533263" y1="540.0232994523343" x2="547.9080024633931" y2="414.85181650804765"></line><line class="link" x1="739.9823563297217" y1="484.6268892198538" x2="682.3435207047934" y2="618.3178717766458"></line><line class="link" x1="682.3435207047934" y1="618.3178717766458" x2="558.8285706072937" y2="481.4491926108251"></line><line class="link" x1="682.3435207047934" y1="618.3178717766458" x2="689.8311989715559" y2="763.3766271823921"></line><line class="link" x1="682.3435207047934" y1="618.3178717766458" x2="822.2622624236756" y2="590.9991027714173"></line><line class="link" x1="739.9823563297217" y1="484.6268892198538" x2="751.3221531216768" y2="581.6790798847925"></line><line class="link" x1="751.3221531216768" y1="581.6790798847925" x2="611.1433781799101" y2="437.57653121019246"></line><line class="link" x1="739.9823563297217" y1="484.6268892198538" x2="891.5752835671084" y2="611.7296578756427"></line><line class="link" x1="891.5752835671084" y1="611.7296578756427" x2="905.3801785677791" y2="743.939199953507"></line><line class="link" x1="739.9823563297217" y1="484.6268892198538" x2="745.0627781907016" y2="654.2864448330516"></line><line class="link dim" x1="238.38504784406516" y1="163.7540522497649" x2="-74.52798769691474" y2="157.65207662211813"></line><line class="link dim" x1="-74.52798769691474" y1="157.65207662211813" x2="-149.55306684347863" y2="68.64498176760681"></line><line class="link dim" x1="-74.52798769691474" y1="157.65207662211813" x2="-151.50944509100813" y2="234.04380954297187"></line><line class="link dim" x1="-74.52798769691474" y1="157.65207662211813" x2="-179.4797833287655" y2="170.509724074319"></line><line class="link dim" x1="-74.52798769691474" y1="157.65207662211813" x2="-123.5965203853249" y2="297.9371856027297"></line><line class="link dim" x1="-74.52798769691474" y1="157.65207662211813" x2="-221.09514332142217" y2="226.75729745607418"></line><line class="link dim" x1="-74.52798769691474" y1="157.65207662211813" x2="-208.07943845474418" y2="106.5427152820095"></line><line class="link dim" x1="-74.52798769691474" y1="157.65207662211813" x2="-193.00491805232377" y2="290.52116320172746"></line><line class="link dim" x1="-74.52798769691474" y1="157.65207662211813" x2="-249.21528820272638" y2="163.03418382522895"></line></g><g><g class="node dim" transform="translate(238.38504784406516,163.7540522497649)"><circle r="18" fill="#ef4444"></circle><text x="23" y="4">Sumit Chanda</text></g><g class="node dim" transform="translate(21.216563078220158,118.22637502113801)"><circle r="15" fill="#8b5cf6"></circle><text x="20" y="4">Security Exception Management</text></g><g class="node dim" transform="translate(5.999007556144229,235.85172176079587)"><circle r="8" fill="#facc15"></circle><text x="13" y="4">Raghu Prasad</text></g><g class="node dim" transform="translate(77.67107176213908,13.518635110117872)"><circle r="8" fill="#facc15"></circle><text x="13" y="4">Valerie Le Kim</text></g><g class="node dim" transform="translate(-75.82921276904551,233.09304212054462)"><circle r="15" fill="#8b5cf6"></circle><text x="20" y="4">Ops &amp; Provisioning</text></g><g class="node dim" transform="translate(-124.59661822216553,373.6725622513183)"><circle r="8" fill="#facc15"></circle><text x="13" y="4">Mahesh C P</text></g><g class="node dim" transform="translate(-56.726689519481354,372.2412285752948)"><circle r="8" fill="#facc15"></circle><text x="13" y="4">Sravani Kalicheti</text></g><g class="node dim" transform="translate(403.57624168477565,57.21990503070085)"><circle r="13" fill="#3b82f6"></circle><text x="18" y="4">Business-Line CISOs</text></g><g class="node dim" transform="translate(235.07158757318103,8.129657026008287)"><circle r="13" fill="#3b82f6"></circle><text x="18" y="4">Corporate &amp; Production IT</text></g><g class="node dim" transform="translate(123.54508270259413,63.55812974913126)"><circle r="8" fill="#facc15"></circle><text x="13" y="4">Viorel Magdas</text></g><g class="node dim" transform="translate(413.7355800809556,-121.5276075410508)"><circle r="13" fill="#3b82f6"></circle><text x="18" y="4">CyS &amp; Eviden</text></g><g class="node dim" transform="translate(393.12770174460513,-203.2038838072381)"><circle r="8" fill="#facc15"></circle><text x="13" y="4">Anna Winiecka</text></g><g class="node dim" transform="translate(269.5971242596477,-214.59775487541356)"><circle r="8" fill="#facc15"></circle><text x="13" y="4">Thierry Ruide</text></g><g class="node dim" transform="translate(391.8813770893577,-271.29127062149826)"><circle r="8" fill="#facc15"></circle><text x="13" y="4">Elena Delgado</text></g><g class="node dim" transform="translate(320.80287251265844,-169.62563302637415)"><circle r="8" fill="#facc15"></circle><text x="13" y="4">Marta Koller</text></g><g class="node dim" transform="translate(256.3761293741943,-148.23865646685204)"><circle r="8" fill="#facc15"></circle><text x="13" y="4">Petru-Alexe Cristolovean</text></g><g class="node dim" transform="translate(451.15877104287415,-238.4805700891314)"><circle r="8" fill="#facc15"></circle><text x="13" y="4">Mariya Shopova</text></g><g class="node dim" transform="translate(462.60769010405176,15.352801895236057)"><circle r="8" fill="#facc15"></circle><text x="13" y="4">Thierry Rikken</text></g><g class="node dim" transform="translate(548.2212207076266,-53.49786205842643)"><circle r="8" fill="#facc15"></circle><text x="13" y="4">Alex Daniels</text></g><g class="node dim" transform="translate(278.1272173923034,-84.0294957421059)"><circle r="8" fill="#facc15"></circle><text x="13" y="4">Kasia Rasiewicz</text></g><g class="node dim" transform="translate(333.8218326597279,-236.21004616592572)"><circle r="8" fill="#facc15"></circle><text x="13" y="4">Abhishek Satam</text></g><g class="node dim" transform="translate(512.5631226305657,261.4048999847222)"><circle r="13" fill="#3b82f6"></circle><text x="18" y="4">Cloud &amp; Modern Infrastructure</text></g><g class="node dim" transform="translate(363.2226071601174,312.4676094169207)"><circle r="8" fill="#facc15"></circle><text x="13" y="4">Martie Benjamin</text></g><g class="node dim" transform="translate(688.1575342277692,335.4318092179037)"><circle r="8" fill="#facc15"></circle><text x="13" y="4">Adrian Moldovan</text></g><g class="node dim" transform="translate(547.9080024633931,414.85181650804765)"><circle r="8" fill="#facc15"></circle><text x="13" y="4">Raquel Oliveira</text></g><g class="node dim" transform="translate(432.50849864687194,432.9724546769445)"><circle r="8" fill="#facc15"></circle><text x="13" y="4">Soumen Kundu</text></g><g class="node dim" transform="translate(378.27950726232416,246.37220620661805)"><circle r="8" fill="#facc15"></circle><text x="13" y="4">Romuald Lavaud</text></g><g class="node dim" transform="translate(651.0850228776085,180.21511720408088)"><circle r="8" fill="#facc15"></circle><text x="13" y="4">Dirk Hoss</text></g><g class="node dim" transform="translate(495.59224956786517,457.463740237413)"><circle r="8" fill="#facc15"></circle><text x="13" y="4">Modou Mbow</text></g><g class="node dim" transform="translate(440.64229493979366,272.91839030133326)"><circle r="8" fill="#facc15"></circle><text x="13" y="4">Tonny le Febre</text></g><g class="node dim" transform="translate(485.4717056536814,390.5368033557117)"><circle r="8" fill="#facc15"></circle><text x="13" y="4">Carlos Gomez Garcia</text></g><g class="node dim" transform="translate(608.5815989993023,232.2682727635327)"><circle r="8" fill="#facc15"></circle><text x="13" y="4">CJ Garbo</text></g><g class="node dim" transform="translate(633.1353731260463,374.59257446462783)"><circle r="8" fill="#facc15"></circle><text x="13" y="4">Meena Salla Eswariah</text></g><g class="node dim" transform="translate(558.8285706072937,481.4491926108251)"><circle r="8" fill="#facc15"></circle><text x="13" y="4">Aleksandra Zielinska</text></g><g class="node dim" transform="translate(611.1433781799101,437.57653121019246)"><circle r="8" fill="#facc15"></circle><text x="13" y="4">Ioana Cocean</text></g><g class="node dim" transform="translate(432.66422982643337,205.5932396382666)"><circle r="8" fill="#facc15"></circle><text x="13" y="4">Patrick van der Rijt</text></g><g class="node dim" transform="translate(568.1976298464682,351.30716951714385)"><circle r="8" fill="#94a3b8"></circle><text x="13" y="4">Karunakaran Nagaiyan</text></g><g class="node dim" transform="translate(485.03347035717184,-90.62418488666373)"><circle r="13" fill="#3b82f6"></circle><text x="18" y="4">Digital Applications</text></g><g class="node dim" transform="translate(342.6067663828868,-105.32499297690504)"><circle r="8" fill="#facc15"></circle><text x="13" y="4">Sachin Raghavan</text></g><g class="node dim" transform="translate(574.3253489505646,-181.5866204762389)"><circle r="8" fill="#facc15"></circle><text x="13" y="4">Anil Alegavi</text></g><g class="node dim" transform="translate(512.8830384811156,-210.45215164324628)"><circle r="8" fill="#facc15"></circle><text x="13" y="4">Kiran Gangawane</text></g><g class="node dim" transform="translate(616.869282807184,-56.41050131354338)"><circle r="8" fill="#facc15"></circle><text x="13" y="4">Dan Grant</text></g><g class="node dim" transform="translate(315.62306508538404,-21.7008345134648)"><circle r="13" fill="#3b82f6"></circle><text x="18" y="4">Smart Platforms</text></g><g class="node dim" transform="translate(602.7772489456486,14.59847687266207)"><circle r="13" fill="#3b82f6"></circle><text x="18" y="4">Data &amp; AI</text></g><g class="node dim" transform="translate(706.1659149857139,142.29261315854657)"><circle r="8" fill="#facc15"></circle><text x="13" y="4">Michael Murashkovskiy</text></g><g class="node dim" transform="translate(483.53737997397474,152.93066076245879)"><circle r="13" fill="#3b82f6"></circle><text x="18" y="4">Tech Foundations</text></g><g class="node dim" transform="translate(288.90328849758043,98.30983922509176)"><circle r="13" fill="#3b82f6"></circle><text x="18" y="4">Digital</text></g><g class="node dim" transform="translate(273.3256619174672,273.7395372231002)"><circle r="8" fill="#facc15"></circle><text x="13" y="4">Issam Alami Hamdouni</text></g><g class="node dim" transform="translate(323.8491562131486,198.32127220246022)"><circle r="13" fill="#3b82f6"></circle><text x="18" y="4">Major Events</text></g><g class="node dim" transform="translate(365.80015032010306,438.4766544940767)"><circle r="8" fill="#facc15"></circle><text x="13" y="4">Jinu P.</text></g><g class="node highlight" transform="translate(623.2619599432518,302.69702656338103)"><circle r="13" fill="#10b981"></circle><text x="18" y="4">Region / Geo CISOs</text></g><g class="node highlight" transform="translate(421.42598662013773,356.4468235939156)"><circle r="13" fill="#10b981"></circle><text x="18" y="4">France</text></g><g class="node dim" transform="translate(275.1221836581101,355.5171042381904)"><circle r="8" fill="#facc15"></circle><text x="13" y="4">Loic Reynaud</text></g><g class="node dim" transform="translate(301.272718328165,418.2604733724964)"><circle r="8" fill="#facc15"></circle><text x="13" y="4">Christophe Vareille</text></g><g class="node dim" transform="translate(233.80503788134385,409.482416305478)"><circle r="8" fill="#facc15"></circle><text x="13" y="4">Vincent Nicolet</text></g><g class="node dim" transform="translate(324.457444897235,492.31796221189404)"><circle r="8" fill="#facc15"></circle><text x="13" y="4">Jean-Louis Juan</text></g><g class="node dim" transform="translate(259.63974549185446,472.14268181899325)"><circle r="8" fill="#facc15"></circle><text x="13" y="4">Anna Strzelecka</text></g><g class="node highlight" transform="translate(782.6632665802499,269.13551674421905)"><circle r="13" fill="#10b981"></circle><text x="18" y="4">North America</text></g><g class="node dim" transform="translate(945.5806972373954,287.3327257408108)"><circle r="8" fill="#facc15"></circle><text x="13" y="4">Janine Skinner</text></g><g class="node dim" transform="translate(862.1250191336123,181.37594518667657)"><circle r="8" fill="#facc15"></circle><text x="13" y="4">Trevor Armentrout</text></g><g class="node dim" transform="translate(877.5508530341472,289.64502937722006)"><circle r="8" fill="#facc15"></circle><text x="13" y="4">Luis Espinosa</text></g><g class="node dim" transform="translate(913.4623023524126,347.23052161777264)"><circle r="8" fill="#facc15"></circle><text x="13" y="4">Luis Angel Herrera</text></g><g class="node dim" transform="translate(908.9412400720051,230.1628891077186)"><circle r="8" fill="#facc15"></circle><text x="13" y="4">Brau Perez</text></g><g class="node dim" transform="translate(845.7200181192012,348.7305641564287)"><circle r="8" fill="#facc15"></circle><text x="13" y="4">Fernando Leal</text></g><g class="node dim" transform="translate(770.3605541950928,121.66011300301645)"><circle r="8" fill="#94a3b8"></circle><text x="13" y="4">Anne Picot-Periac</text></g><g class="node highlight" transform="translate(756.5783852317023,408.66091080576376)"><circle r="13" fill="#10b981"></circle><text x="18" y="4">GDC &amp; Shared Services</text></g><g class="node dim" transform="translate(869.0137016087127,542.7968451939757)"><circle r="8" fill="#facc15"></circle><text x="13" y="4">Deepa Cornelius</text></g><g class="node dim" transform="translate(846.3347811228799,479.2582163761936)"><circle r="8" fill="#facc15"></circle><text x="13" y="4">Amit Rane</text></g><g class="node dim" transform="translate(798.8670979928122,526.8999159523781)"><circle r="8" fill="#facc15"></circle><text x="13" y="4">Govindaraj Kaveri</text></g><g class="node dim" transform="translate(895.4951785079955,425.40438744113)"><circle r="8" fill="#facc15"></circle><text x="13" y="4">Ravindra Malkasare</text></g><g class="node dim" transform="translate(686.6314496255413,267.5532255217628)"><circle r="8" fill="#facc15"></circle><text x="13" y="4">Deepak Patil</text></g><g class="node dim" transform="translate(912.906058292203,491.0105916092506)"><circle r="8" fill="#facc15"></circle><text x="13" y="4">Maja Petrin</text></g><g class="node dim" transform="translate(622.3290925707846,503.7076981068255)"><circle r="8" fill="#facc15"></circle><text x="13" y="4">Adil El Mouttawakkil</text></g><g class="node dim" transform="translate(828.2034886910055,413.76736636482474)"><circle r="8" fill="#94a3b8"></circle><text x="13" y="4">Ashish Maheshwari</text></g><g class="node dim" transform="translate(822.2622624236756,590.9991027714173)"><circle r="8" fill="#facc15"></circle><text x="13" y="4">Robert Latkowski</text></g><g class="node highlight" transform="translate(790.7060992294624,191.8748091222951)"><circle r="13" fill="#10b981"></circle><text x="18" y="4">GA&amp;CE</text></g><g class="node dim" transform="translate(964.2115387911103,190.6800121475265)"><circle r="8" fill="#facc15"></circle><text x="13" y="4">Dieter Schwaicker</text></g><g class="node dim" transform="translate(856.5747308917399,111.16806964440092)"><circle r="8" fill="#facc15"></circle><text x="13" y="4">Sascha Prengel</text></g><g class="node dim" transform="translate(853.9400076112453,43.19566201306387)"><circle r="8" fill="#facc15"></circle><text x="13" y="4">Alicja Lewandowska</text></g><g class="node dim" transform="translate(787.438479328187,56.285122234251446)"><circle r="8" fill="#facc15"></circle><text x="13" y="4">Andreas Lessig</text></g><g class="node dim" transform="translate(917.1250904961329,142.12841228940667)"><circle r="8" fill="#facc15"></circle><text x="13" y="4">Fritz Beichbuchner</text></g><g class="node dim" transform="translate(913.9552741850262,74.3174328894293)"><circle r="8" fill="#facc15"></circle><text x="13" y="4">Roland Mitgutsch</text></g><g class="node highlight" transform="translate(517.419805189827,546.0660676852033)"><circle r="13" fill="#10b981"></circle><text x="18" y="4">International Markets</text></g><g class="node dim" transform="translate(379.0739800061054,589.5689664810953)"><circle r="8" fill="#facc15"></circle><text x="13" y="4">Wakana Saeki</text></g><g class="node dim" transform="translate(470.39670165381347,663.7500064129871)"><circle r="8" fill="#facc15"></circle><text x="13" y="4">Ayaz Mirza</text></g><g class="node dim" transform="translate(403.49409727520214,652.807620318468)"><circle r="8" fill="#facc15"></circle><text x="13" y="4">Abdul Karim Thaufik</text></g><g class="node dim" transform="translate(536.1869656593544,679.7080973072378)"><circle r="8" fill="#facc15"></circle><text x="13" y="4">Boyan Fan</text></g><g class="node highlight" transform="translate(477.78067491786567,737.3132416222662)"><circle r="13" fill="#10b981"></circle><text x="18" y="4">Iberia</text></g><g class="node dim" transform="translate(447.8250727780059,836.6668244044354)"><circle r="8" fill="#facc15"></circle><text x="13" y="4">Ricardo Castanos-Mollor</text></g><g class="node dim" transform="translate(502.133480220578,877.4262502385476)"><circle r="8" fill="#facc15"></circle><text x="13" y="4">Agustin Martinez</text></g><g class="node dim" transform="translate(440.0701512649773,904.2791134089333)"><circle r="8" fill="#facc15"></circle><text x="13" y="4">Rafael Valcarcel</text></g><g class="node dim" transform="translate(385.51369653496596,864.1974743663841)"><circle r="8" fill="#facc15"></circle><text x="13" y="4">Isabel Cardaba</text></g><g class="node dim" transform="translate(393.4287070976335,796.6603923594729)"><circle r="8" fill="#facc15"></circle><text x="13" y="4">Victor Merino</text></g><g class="node dim" transform="translate(330.99755656445734,823.4483485953839)"><circle r="8" fill="#facc15"></circle><text x="13" y="4">Sergio Gomez</text></g><g class="node dim" transform="translate(555.2397904295561,835.3619458367448)"><circle r="8" fill="#facc15"></circle><text x="13" y="4">Juan Mera</text></g><g class="node dim" transform="translate(289.3225988535953,709.2952160290015)"><circle r="8" fill="#94a3b8"></circle><text x="13" y="4">Ismael Sagospe</text></g><g class="node dim" transform="translate(338.89398113296926,755.9105986477817)"><circle r="8" fill="#94a3b8"></circle><text x="13" y="4">Manuel Martin</text></g><g class="node dim" transform="translate(273.9493648419684,775.6734937800749)"><circle r="8" fill="#94a3b8"></circle><text x="13" y="4">Elena Zori</text></g><g class="node highlight" transform="translate(561.0703577123627,178.0459624285009)"><circle r="13" fill="#10b981"></circle><text x="18" y="4">BNN</text></g><g class="node dim" transform="translate(487.3182391816249,80.43526926108763)"><circle r="8" fill="#facc15"></circle><text x="13" y="4">Thierry Vanden Broeck</text></g><g class="node dim" transform="translate(411.48593692350397,140.98618825486298)"><circle r="8" fill="#facc15"></circle><text x="13" y="4">Harry Weitenberg</text></g><g class="node highlight" transform="translate(656.9096717305333,89.10899917370315)"><circle r="13" fill="#10b981"></circle><text x="18" y="4">UK&amp;I</text></g><g class="node dim" transform="translate(718.7379284297067,-30.66713370665188)"><circle r="8" fill="#facc15"></circle><text x="13" y="4">Jill Jenkins</text></g><g class="node dim" transform="translate(529.7054275444299,11.955789294492707)"><circle r="8" fill="#facc15"></circle><text x="13" y="4">Chris Barker</text></g><g class="node dim" transform="translate(558.6023471883893,73.38334592141318)"><circle r="8" fill="#facc15"></circle><text x="13" y="4">Jo Galvin</text></g><g class="node highlight" transform="translate(739.9823563297217,484.6268892198538)"><circle r="13" fill="#10b981"></circle><text x="18" y="4">Other Active Geos</text></g><g class="node highlight" transform="translate(616.983713710908,576.6945309050105)"><circle r="13" fill="#10b981"></circle><text x="18" y="4">Africa</text></g><g class="node highlight" transform="translate(685.4073292533263,540.0232994523343)"><circle r="13" fill="#10b981"></circle><text x="18" y="4">SAM / LatAm</text></g><g class="node highlight" transform="translate(682.3435207047934,618.3178717766458)"><circle r="13" fill="#10b981"></circle><text x="18" y="4">Poland</text></g><g class="node highlight" transform="translate(751.3221531216768,581.6790798847925)"><circle r="13" fill="#10b981"></circle><text x="18" y="4">Romania</text></g><g class="node highlight" transform="translate(891.5752835671084,611.7296578756427)"><circle r="13" fill="#10b981"></circle><text x="18" y="4">Bulgaria</text></g><g class="node dim" transform="translate(689.8311989715559,763.3766271823921)"><circle r="8" fill="#facc15"></circle><text x="13" y="4">Magdalena Krajnik-Jaworska</text></g><g class="node dim" transform="translate(905.3801785677791,743.939199953507)"><circle r="8" fill="#facc15"></circle><text x="13" y="4">Ivan Haylezov</text></g><g class="node dim" transform="translate(745.0627781907016,654.2864448330516)"><circle r="8" fill="#94a3b8"></circle><text x="13" y="4">Gerald Kibelkstis</text></g><g class="node dim" transform="translate(-74.52798769691474,157.65207662211813)"><circle r="9" fill="#f97316"></circle><text x="14" y="4">Revoke &amp; Reassign Worklist</text></g><g class="node dim" transform="translate(-149.55306684347863,68.64498176760681)"><circle r="9" fill="#f97316"></circle><text x="14" y="4">Marco Revert</text></g><g class="node dim" transform="translate(-151.50944509100813,234.04380954297187)"><circle r="9" fill="#f97316"></circle><text x="14" y="4">Marco Fregapane</text></g><g class="node dim" transform="translate(-179.4797833287655,170.509724074319)"><circle r="9" fill="#f97316"></circle><text x="14" y="4">Ranjith Ramasamy</text></g><g class="node dim" transform="translate(-123.5965203853249,297.9371856027297)"><circle r="9" fill="#f97316"></circle><text x="14" y="4">Erik Wegscheider</text></g><g class="node dim" transform="translate(-221.09514332142217,226.75729745607418)"><circle r="9" fill="#f97316"></circle><text x="14" y="4">Stefan Schmitten</text></g><g class="node dim" transform="translate(-208.07943845474418,106.5427152820095)"><circle r="9" fill="#f97316"></circle><text x="14" y="4">Salima Boudrika</text></g><g class="node dim" transform="translate(-193.00491805232377,290.52116320172746)"><circle r="9" fill="#f97316"></circle><text x="14" y="4">Manjunath Salian</text></g><g class="node dim" transform="translate(-249.21528820272638,163.03418382522895)"><circle r="9" fill="#f97316"></circle><text x="14" y="4">Szymon Matela</text></g></g></g></svg>